<svg version="1.2" xmlns="http://www.w3.org/2000/svg" viewBox="0 0 2000 2000" width="2000" height="2000">
	<style>
		.s0 { fill: #ffffff } 
	</style>
	<g>
		<g>
			<g>
				<path fill-rule="evenodd" class="s0" d="m1671.91 260.64c1.94-11.06 0.56-20.45-3.88-26.45-2.67-3.6-6.37-5.78-10.69-6.31q-1.37-0.16-2.77-0.16-1.48 0-2.99 0.18c-13.78 1.72-24.64 14.19-24.72 28.4v29.43l16.83-0.98c7.07-0.81 13.59-3.56 18.86-7.97 5.07-4.25 8.22-9.68 9.36-16.14zm-11.82-2.07c-0.64 3.64-2.36 6.59-5.25 9-3.38 2.84-7.6 4.64-12.21 5.22l-3.77 0.22v-16.69c0.07-8.14 6.43-15.54 14.19-16.51 0.99-0.12 1.97-0.12 2.84-0.02 0.73 0.09 1.61 0.35 2.5 1.55 2.39 3.23 3.03 9.67 1.7 17.23zm-104-78.86q3.34-4.53 4.38-10.22c1.87-10.24 0.61-18.98-3.56-24.61-2.67-3.61-6.46-5.81-10.96-6.33q-1.4-0.17-2.83-0.17-1.51 0-3.04 0.18c-13.75 1.65-24.59 13.47-24.67 26.91v14.24 13.77l16.83-1.07c7.15-0.77 13.73-3.44 19.03-7.71q2.81-2.27 4.82-4.99zm-7.42-12.37c-0.59 3.23-2.16 5.78-4.93 8.01-2.5 2.02-5.47 3.49-8.73 4.36q-1.86 0.51-3.83 0.75l-3.77 0.23v-0.98-14.17c0.04-7.38 6.37-14.13 14.09-15.06 1.05-0.13 2.09-0.13 3.05-0.02 1.2 0.14 2.01 0.61 2.72 1.56 1.62 2.2 2.84 7.38 1.4 15.32zm-101.36 173.91c-2.42 8.89-1.68 16.57 2.13 22.22 2.92 4.31 7.52 7.13 12.62 7.73q2.88 0.33 5.87-0.02c13.3-1.6 23.4-13.16 23.48-26.9v-29.15l-16.47 1.83c-20.21 2.57-26.26 19.24-27.63 24.29zm11.58 3.15c1.12-4.13 5.07-13.91 17.48-15.52l3.04-0.34v15.71c-0.07 7.69-5.61 14.14-12.9 15.01q-1.59 0.19-3.05 0.02c-1.63-0.19-3.12-1.11-4.07-2.53-1.78-2.63-1.95-7.01-0.5-12.35zm-424.12-282.74l0.94-0.08c14.17-1.46 27.37-6.83 38.15-15.52 11.75-9.47 19.37-22.19 22.03-36.78q0.87-4.85 1.19-9.57h-12.03q-0.29 3.65-0.97 7.42c-2.13 11.72-8.27 21.95-17.75 29.59-8.98 7.23-19.99 11.7-31.85 12.92l-0.47 0.04-18.6 1.18v74.69l87.45-5.09v-30.9c0.15-26.09 20.25-48.96 45.75-52.14 3.89-0.48 7.81-0.49 11.63-0.03 10.87 1.32 20.48 6.95 27.07 15.85 8.4 11.33 11.33 27.27 8.23 44.89-2.1 12.01-8.19 22.52-17.59 30.39-9 7.52-20.05 12.18-31.98 13.45l-0.58 0.05-18.53 1.08v36.61 38.46l276-17.54 88.55-5.62v-15.3-14.31c0.15-25.38 20.27-47.6 45.81-50.66 3.86-0.47 7.73-0.48 11.52-0.03 11.09 1.3 20.85 6.95 27.47 15.9 8.15 11.02 10.94 26.35 7.87 43.19q-0.55 3.03-1.46 5.91c-2.9 9.25-8.45 17.35-16.29 23.68-8.98 7.23-19.99 11.7-31.85 12.92l-0.47 0.04-18.6 1.18v74.69l87.45-5.1v-30.89c0.15-26.09 20.25-48.97 45.76-52.14 3.88-0.49 7.8-0.5 11.62-0.03 10.87 1.32 20.48 6.95 27.07 15.84 8.4 11.34 11.33 27.28 8.24 44.89-2.11 12.01-8.2 22.52-17.6 30.39-9 7.53-20.05 12.18-31.98 13.46l-0.58 0.05-18.53 1.08v75.06l364.55-23.16v-29.61c0.06-10.11 3.3-19.71 8.78-27.81v-18.16c-12.65 11.66-20.67 28.19-20.78 45.97v18.35l-340.55 21.64v-50.96l7.23-0.42 1.16-0.1c14.3-1.53 27.57-7.13 38.4-16.18 11.6-9.71 19.11-22.69 21.71-37.52 3.67-20.89-0.03-40.1-10.41-54.11-8.57-11.57-21.09-18.89-35.26-20.62-4.81-0.58-9.71-0.57-14.56 0.04-31.37 3.91-56.09 32.01-56.27 64.05v19.57l-63.45 3.7v-50.71l7.36-0.47 0.94-0.07c14.17-1.46 27.36-6.83 38.15-15.52 10.73-8.65 18-20 21.21-33.02q0.46-1.86 0.82-3.76c3.67-20.13 0.11-38.77-10.03-52.47-8.62-11.65-21.3-19-35.72-20.69-4.74-0.56-9.57-0.55-14.35 0.03-31.43 3.77-56.19 31.23-56.38 62.58v14.31 4.03l-76.55 4.87-264 16.77v-25.67-25.29l7.23-0.42 1.16-0.09c14.3-1.53 27.58-7.13 38.4-16.19 11.6-9.71 19.11-22.68 21.71-37.52 3.67-20.89-0.03-40.1-10.41-54.11-8.57-11.56-21.09-18.88-35.26-20.61-4.79-0.58-9.69-0.57-14.56 0.03-31.37 3.91-56.09 32.01-56.27 64.05v19.58l-63.45 3.69v-50.71zm-55.36-44.57l-340.55 21.63v-39h-12v51.79l364.55-23.16v-28.63h-12zm-388.55 24.66l-6.69 0.54-1.17 0.12c-35.45 4.6-53.96 28.86-59.04 48.23-5.17 19.73-2.51 38.7 7.48 53.41 8.77 12.92 22.54 21.39 37.77 23.25 4.77 0.58 9.72 0.57 14.56-0.04 31.21-3.88 54.89-31.39 55.09-64.05v-16.39l340.55-21.63v48.4l-8.86 0.99c-33.75 4.22-52.08 28.89-57.98 50.57q-2 7.4-2.48 14.58c-0.91 13.7 2.32 26.58 9.52 37.24 8.79 13.01 22.73 21.51 38.25 23.33 4.72 0.55 9.56 0.55 14.35-0.03 30.61-3.67 53.97-29.49 55.14-60.54q0.04-1.01 0.06-2.03v-16.77l63.45-3.7v22.5 28.68l-6.69 0.54-1.17 0.12c-35.45 4.61-53.96 28.86-59.04 48.24-5.17 19.73-2.51 38.7 7.48 53.41 8.77 12.92 22.54 21.39 37.77 23.25 4.77 0.57 9.72 0.57 14.56-0.04 31.21-3.89 54.89-31.39 55.09-64.05v-16.39l264-16.77 76.55-4.86v48.4l-8.87 0.99c-33.75 4.22-52.07 28.89-57.97 50.57-5.18 19.03-2.68 37.43 7.04 51.82 8.79 13 22.73 21.51 38.25 23.33 4.71 0.55 9.56 0.54 14.35-0.03 31.28-3.75 55.01-30.62 55.2-62.58v-16.76l63.45-3.7v51.18l-6.69 0.54-1.17 0.12c-35.46 4.6-53.97 28.86-59.04 48.24-5.17 19.73-2.51 38.7 7.48 53.41 8.77 12.91 22.54 21.39 37.77 23.24 4.77 0.58 9.72 0.57 14.56-0.03 31.22-3.89 54.9-31.4 55.09-64.05v-16.39l340.55-21.64v48.41l-8.87 0.98c-33.75 4.22-52.07 28.89-57.97 50.57-5.18 19.03-2.68 37.44 7.04 51.82 8.79 13.01 22.73 21.51 38.25 23.33 4.71 0.56 9.56 0.55 14.35-0.03 10.35-1.24 19.86-5.02 27.98-10.67v-15.55c-7.75 7.71-17.95 12.94-29.41 14.31q-2.96 0.35-5.9 0.35-2.83 0-5.62-0.32c-12.05-1.42-22.88-8.03-29.71-18.13-7.73-11.45-9.65-26.35-5.4-41.96 4.88-17.93 20.02-38.32 47.88-41.81l0.17-0.02 19.21-2.13v-71.93l-364.55 23.16v27.65c-0.16 26.61-19.32 48.99-44.57 52.14q-2.98 0.37-5.96 0.37-2.86 0-5.67-0.34c-11.79-1.44-22.47-8.03-29.29-18.08-8.02-11.8-10.08-27.29-5.8-43.62 4.13-15.77 19.43-35.54 48.98-39.38l0.58-0.06 17.73-1.43v-74.97l-87.45 5.09v28.09c-0.16 25.88-19.34 47.63-44.63 50.66q-2.96 0.36-5.9 0.36-2.83 0-5.62-0.33c-12.05-1.41-22.88-8.02-29.71-18.13-7.73-11.45-9.65-26.35-5.4-41.95 4.88-17.93 20.02-38.33 47.88-41.81l0.17-0.02 19.21-2.14v-71.93l-88.55 5.63-276 17.53v27.65c-0.16 26.61-19.32 49-44.57 52.14q-2.98 0.38-5.96 0.38-2.86 0-5.67-0.35c-11.79-1.43-22.47-8.02-29.29-18.07-8.02-11.81-10.08-27.3-5.8-43.63 4.13-15.77 19.43-35.54 48.98-39.38l0.58-0.06 17.73-1.42v-39.76-35.22l-87.45 5.1v28.09q-0.01 1.02-0.06 2.03c-1.12 24.98-19.95 45.67-44.57 48.63q-2.96 0.35-5.9 0.35-2.84 0-5.62-0.33c-12.05-1.41-22.88-8.02-29.71-18.13-5.81-8.61-8.34-19.17-7.43-30.52q0.45-5.62 2.03-11.43c4.88-17.93 20.02-38.33 47.88-41.81l0.17-0.02 19.21-2.13v-71.94l-364.55 23.16v27.65c-0.16 26.61-19.32 49-44.57 52.15q-2.98 0.37-5.96 0.37-2.86 0-5.67-0.34c-11.79-1.44-22.47-8.03-29.29-18.08-8.02-11.8-10.08-27.3-5.8-43.63 4.13-15.76 19.43-35.54 48.98-39.37l0.58-0.06 17.73-1.43v-53.09h-12zm-75.45-30.72c-0.16 25.88-19.34 47.63-44.63 50.66q-2.96 0.36-5.9 0.36-2.84 0-5.62-0.33c-12.05-1.41-22.88-8.02-29.71-18.13-7.73-11.45-9.65-26.35-5.4-41.95q0.26-0.95 0.55-1.91h-12.44c-4.73 18.59-2.16 36.51 7.35 50.58 8.79 13 22.73 21.51 38.25 23.33 4.71 0.55 9.56 0.54 14.35-0.03 31.28-3.75 55-30.62 55.2-62.58v-11.3h-12zm-446.2-10.39c4.77 0.58 9.72 0.57 14.56-0.04q2.58-0.33 5.09-0.87h-24.81q2.55 0.58 5.16 0.91zm1489.57 432.46c-2.49 9.53-1.63 18.08 2.44 24.06 2.93 4.32 7.43 7.14 12.34 7.74q2.83 0.34 5.76-0.02c13.33-1.66 23.45-13.87 23.54-28.4v-26.25l-15.5 1.25c-17.53 2.38-26.35 13.11-28.58 21.62zm11.61 3.04c1.03-3.91 6.03-10.96 18.28-12.73l2.19-0.17v13.22c-0.08 8.5-5.67 15.59-13.01 16.51q-1.49 0.18-2.84 0.02c-1.47-0.18-2.88-1.12-3.86-2.57-2.03-2.99-2.32-8.33-0.76-14.28zm376.92 71.8c-2.42 8.88-1.68 16.57 2.13 22.21 2.91 4.32 7.51 7.14 12.62 7.73q2.88 0.34 5.87-0.02c13.3-1.59 23.39-13.16 23.48-26.9v-29.14l-16.48 1.83c-20.2 2.57-26.25 19.23-27.62 24.29zm11.58 3.14c1.12-4.13 5.07-13.9 17.47-15.51l3.05-0.34v15.71c-0.07 7.68-5.61 14.13-12.91 15.01q-1.58 0.18-3.04 0.02c-1.63-0.19-3.12-1.12-4.08-2.54-1.77-2.62-1.95-7.01-0.49-12.35zm-910.23-510.39c-0.58 3.24-2.15 5.78-4.92 8.02-3.45 2.78-7.79 4.54-12.56 5.1l-3.77 0.24v-14.32h-12v27.1l16.83-1.07c7.15-0.77 13.73-3.44 19.03-7.71 5-4.03 8.1-9.15 9.2-15.21q0.28-1.58 0.46-3.11h-12.12c-0.06 0.33-0.09 0.63-0.15 0.96zm-101.35 173.91c-0.48 1.77-0.8 3.47-1.04 5.13-0.93 6.72 0.11 12.57 3.17 17.09 2.91 4.31 7.51 7.13 12.62 7.73q2.88 0.34 5.87-0.02c12.61-1.51 22.33-12 23.37-24.8q0.09-1.04 0.11-2.1v-29.14l-16.48 1.83c-20.2 2.56-26.25 19.23-27.62 24.28zm11.1 5.13q0.2-0.96 0.48-1.98c1.12-4.13 5.07-13.9 17.47-15.52l3.05-0.34v15.71q-0.02 1.09-0.18 2.13c-0.97 6.72-6.12 12.09-12.73 12.89q-1.57 0.19-3.04 0.01c-1.64-0.19-3.12-1.11-4.08-2.53-1.55-2.29-1.88-5.93-0.97-10.37zm213.49-85.73c1.95-11.07 0.57-20.46-3.87-26.45-2.67-3.61-6.37-5.79-10.69-6.32q-1.37-0.16-2.77-0.16-1.49 0-2.99 0.18c-13.78 1.72-24.64 14.2-24.72 28.4v29.43l16.83-0.98c7.07-0.81 13.59-3.56 18.85-7.97 5.08-4.25 8.23-9.68 9.36-16.13zm-11.81-2.08c-0.65 3.69-2.32 6.56-5.25 9.01-3.38 2.83-7.6 4.63-12.21 5.21l-3.77 0.22v-16.69c0.07-8.14 6.43-15.54 14.19-16.51 0.99-0.12 1.97-0.12 2.84-0.02 0.73 0.09 1.6 0.35 2.5 1.55 2.39 3.23 3.02 9.67 1.7 17.23zm-601.31 7.85c-2.49 9.53-1.63 18.07 2.44 24.06 2.93 4.32 7.43 7.14 12.34 7.74q2.83 0.34 5.76-0.02c13.33-1.67 23.45-13.87 23.54-28.4v-26.25l-15.5 1.25c-17.53 2.37-26.35 13.11-28.58 21.62zm11.61 3.04c1.03-3.92 6.03-10.97 18.28-12.73l2.19-0.17v13.22c-0.08 8.5-5.67 15.59-13.02 16.51q-1.47 0.18-2.83 0.02c-1.47-0.18-2.88-1.12-3.87-2.58-2.03-2.98-2.31-8.32-0.75-14.27zm-120.95-72.66c2.91 4.32 7.51 7.14 12.62 7.73q2.88 0.34 5.87-0.02c13.3-1.59 23.39-13.16 23.48-26.9v-11.23h-12v11.2c-0.07 7.69-5.61 14.14-12.91 15.02q-1.57 0.19-3.04 0.02c-1.64-0.19-3.12-1.12-4.08-2.53-1.77-2.63-1.95-7.02-0.49-12.35 0.72-2.68 2.65-7.7 7.26-11.36h-15.43c-1.93 3.41-2.94 6.48-3.41 8.21-2.42 8.88-1.68 16.57 2.13 22.21zm609.34 236.29c-2.49 9.53-1.63 18.07 2.44 24.06 2.93 4.31 7.43 7.13 12.34 7.73q2.83 0.35 5.76-0.02c13.33-1.66 23.45-13.87 23.54-28.4v-26.24l-15.5 1.24c-17.53 2.38-26.35 13.12-28.58 21.63zm11.61 3.04c1.03-3.92 6.03-10.97 18.28-12.73l2.19-0.18v13.22c-0.08 8.5-5.67 15.6-13.02 16.51q-1.47 0.19-2.83 0.02c-1.47-0.18-2.88-1.11-3.87-2.57-2.03-2.99-2.31-8.32-0.75-14.27zm601.51 657.85c1.95-11.06 0.57-20.46-3.87-26.45-2.67-3.6-6.37-5.79-10.69-6.31q-1.37-0.17-2.77-0.17-1.49 0-2.99 0.19c-13.78 1.71-24.64 14.19-24.72 28.4v29.42l16.83-0.98c7.07-0.81 13.59-3.56 18.85-7.97 5.08-4.25 8.23-9.67 9.36-16.13zm-11.81-2.07c-0.64 3.64-2.36 6.58-5.25 9-3.38 2.83-7.6 4.63-12.21 5.21l-3.77 0.22v-16.68c0.07-8.14 6.43-15.55 14.19-16.51 0.99-0.12 1.96-0.13 2.84-0.02 0.73 0.09 1.6 0.34 2.5 1.55 2.39 3.22 3.02 9.66 1.7 17.23zm-104-78.86q3.34-4.53 4.38-10.22c1.87-10.24 0.6-18.98-3.56-24.61-2.67-3.62-6.47-5.81-10.96-6.34q-1.4-0.16-2.83-0.16-1.51 0-3.04 0.18c-13.76 1.65-24.59 13.47-24.67 26.9v14.25 13.77l16.83-1.07c7.15-0.78 13.73-3.44 19.03-7.72q2.81-2.26 4.82-4.98zm-7.43-12.38c-0.58 3.24-2.15 5.79-4.92 8.02-2.5 2.02-5.47 3.49-8.73 4.36q-1.86 0.5-3.83 0.74l-3.77 0.24v-0.98-14.17c0.04-7.38 6.37-14.14 14.09-15.06 1.04-0.13 2.09-0.13 3.05-0.02 1.2 0.14 2.01 0.61 2.71 1.55 1.63 2.2 2.85 7.38 1.4 15.32zm-101.35 173.92c-2.42 8.88-1.68 16.57 2.13 22.21 2.91 4.32 7.51 7.14 12.62 7.73q2.88 0.34 5.87-0.02c13.3-1.59 23.39-13.16 23.48-26.9v-29.14l-16.48 1.83c-20.2 2.57-26.25 19.23-27.62 24.29zm11.58 3.14c1.12-4.13 5.07-13.9 17.47-15.51l3.05-0.34v15.71c-0.07 7.68-5.61 14.13-12.9 15.01q-1.59 0.19-3.05 0.02c-1.63-0.19-3.12-1.12-4.08-2.54-1.77-2.62-1.95-7.01-0.49-12.35zm99.89 88.69c-2.49 9.53-1.63 18.07 2.44 24.06 2.93 4.32 7.43 7.14 12.34 7.74q2.83 0.34 5.76-0.02c13.33-1.67 23.45-13.87 23.54-28.4v-26.25l-15.5 1.25c-17.53 2.37-26.35 13.11-28.58 21.62zm11.61 3.04c1.03-3.92 6.03-10.97 18.28-12.73l2.19-0.17v13.22c-0.08 8.5-5.67 15.59-13.01 16.51q-1.49 0.18-2.84 0.02c-1.47-0.18-2.88-1.12-3.86-2.57-2.03-2.99-2.32-8.33-0.76-14.28zm376.92 71.79c-2.42 8.89-1.68 16.57 2.13 22.22 2.91 4.31 7.51 7.13 12.62 7.73q2.88 0.34 5.87-0.02c13.3-1.59 23.39-13.16 23.48-26.9v-29.14l-16.48 1.83c-20.2 2.56-26.25 19.23-27.62 24.28zm11.58 3.15c1.12-4.13 5.07-13.9 17.47-15.52l3.05-0.34v15.71c-0.07 7.69-5.61 14.14-12.91 15.02q-1.58 0.18-3.04 0.01c-1.63-0.19-3.12-1.11-4.08-2.53-1.77-2.62-1.95-7.01-0.49-12.35zm-1898.42-841.57c1.87-10.24 0.6-18.98-3.56-24.61-2.67-3.62-6.47-5.81-10.96-6.34q-1.4-0.16-2.83-0.16-1.51 0-3.04 0.18c-13.76 1.65-24.59 13.47-24.67 26.9v28.02l16.83-1.07c7.15-0.78 13.73-3.44 19.03-7.72 5-4.03 8.1-9.14 9.2-15.2zm-11.81-2.16c-0.58 3.24-2.15 5.79-4.92 8.02-3.45 2.78-7.79 4.54-12.56 5.1l-3.77 0.24v-15.15c0.04-7.38 6.37-14.14 14.09-15.06 1.05-0.13 2.09-0.13 3.05-0.02 1.2 0.14 2.01 0.61 2.71 1.55 1.63 2.2 2.85 7.38 1.4 15.32zm1011.81 335.49c1.87-10.24 0.6-18.98-3.56-24.61-2.67-3.62-6.47-5.81-10.96-6.34q-1.4-0.16-2.83-0.16-1.51 0-3.04 0.18c-13.76 1.65-24.59 13.47-24.67 26.91v28.01l16.83-1.07c7.15-0.77 13.73-3.44 19.03-7.71 5-4.03 8.1-9.15 9.2-15.21zm-11.81-2.15c-0.58 3.23-2.15 5.78-4.92 8.01-3.45 2.78-7.79 4.55-12.56 5.1l-3.77 0.24v-15.15c0.04-7.38 6.37-14.14 14.08-15.06 1.06-0.13 2.1-0.13 3.06-0.02 1.2 0.14 2.01 0.61 2.71 1.56 1.63 2.2 2.85 7.38 1.4 15.32zm-488.19-164.52c1.87-10.24 0.6-18.98-3.56-24.6-2.67-3.62-6.47-5.81-10.96-6.34q-1.4-0.17-2.83-0.17-1.51 0-3.04 0.19c-13.76 1.65-24.59 13.46-24.67 26.9v28.01l16.83-1.07c7.15-0.77 13.73-3.44 19.03-7.71 5-4.03 8.1-9.15 9.2-15.21zm-11.81-2.15c-0.58 3.24-2.15 5.78-4.92 8.02-3.45 2.78-7.79 4.54-12.56 5.1l-3.77 0.24v-15.16c0.04-7.38 6.37-14.13 14.08-15.06 1.06-0.12 2.1-0.13 3.06-0.01 1.2 0.14 2.01 0.6 2.71 1.55 1.63 2.2 2.85 7.38 1.4 15.32zm398.65 340.58c-0.48 1.76-0.8 3.47-1.04 5.13-0.93 6.71 0.11 12.56 3.17 17.09 2.91 4.31 7.51 7.13 12.62 7.73q2.88 0.33 5.87-0.02c12.61-1.52 22.33-12 23.37-24.8q0.09-1.04 0.11-2.11v-29.14l-16.48 1.83c-20.2 2.57-26.25 19.24-27.62 24.29zm11.1 5.13q0.2-0.97 0.48-1.98c1.12-4.13 5.07-13.91 17.47-15.52l3.05-0.34v15.71q-0.02 1.08-0.18 2.13c-0.97 6.72-6.12 12.09-12.73 12.88q-1.57 0.19-3.04 0.02c-1.64-0.19-3.12-1.11-4.08-2.53-1.55-2.29-1.88-5.93-0.97-10.37zm213.49-85.74c1.95-11.06 0.57-20.45-3.87-26.45-2.67-3.6-6.37-5.78-10.69-6.31q-1.37-0.17-2.77-0.17-1.49 0-2.99 0.19c-13.78 1.72-24.64 14.19-24.72 28.4v29.43l16.83-0.98c7.07-0.81 13.59-3.56 18.85-7.97 5.08-4.25 8.23-9.68 9.36-16.14zm-11.81-2.07c-0.65 3.69-2.32 6.55-5.25 9-3.38 2.84-7.6 4.63-12.21 5.22l-3.77 0.22v-16.69c0.07-8.14 6.43-15.54 14.19-16.51 0.99-0.12 1.97-0.12 2.84-0.02 0.73 0.09 1.6 0.35 2.5 1.55 2.39 3.22 3.02 9.67 1.7 17.23zm-1101.31-158.82c-2.49 9.53-1.63 18.07 2.44 24.06 2.93 4.32 7.43 7.14 12.34 7.74q2.83 0.34 5.76-0.02c13.33-1.67 23.45-13.87 23.54-28.4v-26.25l-15.5 1.25c-17.53 2.37-26.35 13.11-28.58 21.62zm11.61 3.04c1.03-3.92 6.03-10.97 18.28-12.73l2.19-0.17v13.22c-0.08 8.5-5.67 15.59-13.02 16.51q-1.47 0.18-2.83 0.02c-1.47-0.18-2.88-1.12-3.86-2.57-2.03-2.99-2.32-8.33-0.76-14.28zm488.39 163.63c-2.49 9.53-1.63 18.07 2.44 24.06 2.93 4.31 7.43 7.13 12.34 7.73q2.83 0.34 5.76-0.02c13.33-1.66 23.45-13.87 23.54-28.4v-26.24l-15.5 1.24c-17.53 2.38-26.35 13.12-28.58 21.63zm11.61 3.04c1.03-3.92 6.03-10.97 18.28-12.73l2.19-0.18v13.22c-0.08 8.5-5.67 15.6-13.02 16.51q-1.47 0.18-2.83 0.02c-1.47-0.18-2.88-1.11-3.87-2.57-2.03-2.99-2.31-8.32-0.75-14.27zm-398.49-342.15c1.95-11.06 0.57-20.46-3.87-26.45-2.67-3.6-6.37-5.79-10.69-6.31q-1.37-0.17-2.77-0.17-1.49 0-2.99 0.19c-13.78 1.71-24.64 14.19-24.72 28.4v29.42l16.83-0.98c7.07-0.81 13.59-3.56 18.85-7.97 5.08-4.25 8.23-9.67 9.36-16.13zm-11.81-2.07c-0.64 3.64-2.36 6.58-5.25 9-3.38 2.83-7.6 4.63-12.21 5.21l-3.77 0.22v-16.68c0.07-8.14 6.43-15.55 14.19-16.51 0.99-0.12 1.96-0.13 2.84-0.02 0.73 0.09 1.6 0.34 2.5 1.55 2.39 3.22 3.02 9.66 1.7 17.23zm287.22 249.34c-2.42 8.89-1.68 16.57 2.13 22.22 2.91 4.31 7.51 7.13 12.62 7.73q2.88 0.34 5.87-0.02c13.3-1.59 23.39-13.16 23.48-26.9v-29.14l-16.48 1.83c-20.2 2.56-26.25 19.23-27.62 24.28zm11.58 3.15c1.12-4.13 5.07-13.9 17.47-15.52l3.05-0.34v15.71c-0.07 7.69-5.61 14.14-12.91 15.02q-1.57 0.18-3.04 0.01c-1.64-0.19-3.12-1.11-4.08-2.53-1.77-2.62-1.95-7.01-0.49-12.35zm213.01-83.75c1.95-11.07 0.57-20.46-3.87-26.45-2.67-3.61-6.37-5.79-10.69-6.32q-1.37-0.16-2.77-0.16-1.49 0-2.99 0.18c-13.78 1.72-24.64 14.2-24.72 28.4v29.43l16.83-0.98c7.07-0.81 13.59-3.56 18.85-7.97 5.08-4.25 8.23-9.68 9.36-16.13zm-11.81-2.08c-0.65 3.69-2.32 6.56-5.25 9.01-3.38 2.83-7.6 4.63-12.21 5.21l-3.77 0.22v-16.69c0.07-8.14 6.43-15.54 14.19-16.51 0.99-0.12 1.97-0.12 2.84-0.02 0.73 0.09 1.6 0.35 2.5 1.55 2.39 3.23 3.02 9.67 1.7 17.23zm398.69 341.18c-2.49 9.53-1.63 18.08 2.44 24.06 2.93 4.32 7.43 7.14 12.34 7.74q2.83 0.34 5.76-0.02c13.33-1.66 23.45-13.87 23.54-28.4v-26.25l-15.5 1.25c-17.53 2.38-26.35 13.11-28.58 21.62zm11.61 3.04c1.03-3.91 6.03-10.96 18.28-12.73l2.19-0.17v13.22c-0.08 8.5-5.67 15.59-13.02 16.51q-1.47 0.18-2.83 0.02c-1.47-0.18-2.88-1.12-3.87-2.57-2.03-2.99-2.31-8.32-0.75-14.28zm909.02 62.61v18.35l-340.55 21.63v-50.96l7.23-0.42 1.16-0.09c14.29-1.53 27.57-7.13 38.4-16.19 11.6-9.71 19.11-22.68 21.71-37.52 3.67-20.88-0.03-40.1-10.41-54.1-8.57-11.57-21.09-18.89-35.26-20.62-4.81-0.58-9.71-0.57-14.56 0.03-31.37 3.91-56.09 32.02-56.27 64.06v19.57l-63.45 3.7v-50.71l7.36-0.47 0.93-0.08c14.18-1.46 27.37-6.82 38.16-15.51 10.73-8.65 17.99-20.01 21.2-33.02q0.47-1.86 0.83-3.77c3.67-20.13 0.1-38.76-10.03-52.47-8.62-11.65-21.3-18.99-35.72-20.68-4.74-0.56-9.57-0.55-14.35 0.03-31.43 3.77-56.19 31.22-56.38 62.57v14.32 4.03l-76.55 4.86-264 16.78v-25.67-25.29l7.23-0.42 1.16-0.1c14.3-1.53 27.57-7.13 38.4-16.18 11.6-9.71 19.11-22.69 21.71-37.52 3.67-20.89-0.03-40.11-10.41-54.11-8.57-11.57-21.09-18.89-35.26-20.62-4.79-0.58-9.69-0.57-14.56 0.04-31.37 3.9-56.09 32.01-56.27 64.05v19.57l-63.45 3.7v-50.71l7.36-0.47 0.94-0.07c14.17-1.46 27.36-6.83 38.15-15.52 11.75-9.47 19.37-22.19 22.03-36.78 3.67-20.13 0.1-38.77-10.03-52.47-8.62-11.65-21.3-19-35.72-20.69-4.73-0.56-9.57-0.55-14.35 0.03-31.43 3.77-56.2 31.22-56.38 62.58v18.34l-340.55 21.64v-50.96l7.23-0.42 1.16-0.1c14.3-1.53 27.57-7.12 38.4-16.18 11.6-9.71 19.11-22.68 21.71-37.52 3.67-20.89-0.03-40.1-10.41-54.11-8.57-11.57-21.09-18.89-35.26-20.61-4.8-0.59-9.7-0.57-14.56 0.03-31.37 3.91-56.09 32.01-56.27 64.05v19.58l-63.45 3.69v-50.71l7.36-0.47 0.94-0.07c14.17-1.46 27.36-6.83 38.15-15.52 11.75-9.47 19.37-22.19 22.03-36.78 3.67-20.13 0.1-38.76-10.03-52.47-8.62-11.65-21.3-19-35.72-20.69-4.73-0.55-9.56-0.54-14.35 0.03-31.43 3.77-56.2 31.23-56.38 62.58v18.35l-340.55 21.63v-50.96l7.23-0.42 1.16-0.09c14.29-1.53 27.57-7.13 38.4-16.19 11.6-9.71 19.11-22.68 21.71-37.52 3.67-20.88-0.03-40.1-10.41-54.1-8.57-11.57-21.09-18.89-35.26-20.62-4.8-0.58-9.7-0.57-14.56 0.03-31.37 3.91-56.09 32.02-56.27 64.06v19.57l-63.45 3.7v-50.71l7.36-0.47 0.93-0.08c14.18-1.46 27.37-6.82 38.16-15.51 11.75-9.48 19.37-22.2 22.03-36.79 3.67-20.13 0.1-38.76-10.03-52.47-8.62-11.65-21.3-18.99-35.72-20.68-4.73-0.56-9.56-0.55-14.35 0.03-13.6 1.63-25.95 7.7-35.6 16.6v18.16c8.27-12.23 21.67-21.01 37.03-22.85 3.85-0.46 7.73-0.47 11.52-0.03 11.09 1.31 20.85 6.95 27.47 15.91 8.14 11.01 10.94 26.35 7.87 43.18-2.14 11.72-8.27 21.95-17.75 29.59-8.98 7.23-19.99 11.7-31.86 12.93l-0.46 0.03-18.6 1.19v74.68l87.45-5.09v-30.89c0.15-26.1 20.25-48.97 45.75-52.15 3.89-0.48 7.8-0.49 11.63-0.03 10.86 1.33 20.48 6.95 27.07 15.85 8.4 11.33 11.33 27.28 8.23 44.89-2.1 12.01-8.19 22.52-17.59 30.39-9 7.53-20.05 12.18-31.98 13.46l-0.58 0.04-18.53 1.08v75.07l364.55-23.16v-29.61c0.15-25.38 20.27-47.6 45.81-50.66 3.85-0.46 7.73-0.47 11.52-0.03 11.09 1.3 20.85 6.95 27.47 15.9 8.14 11.02 10.94 26.35 7.87 43.19-2.14 11.72-8.27 21.95-17.75 29.59-8.98 7.23-19.99 11.7-31.85 12.92l-0.47 0.04-18.6 1.18v74.69l87.45-5.09v-30.9c0.15-26.09 20.25-48.96 45.75-52.14 3.89-0.49 7.8-0.5 11.63-0.03 10.87 1.32 20.48 6.95 27.07 15.85 8.4 11.33 11.33 27.27 8.23 44.88-2.11 12.02-8.19 22.53-17.59 30.4-9 7.52-20.05 12.18-31.98 13.45l-0.58 0.05-18.53 1.08v75.07l364.55-23.16v-29.61c0.15-25.38 20.27-47.6 45.81-50.66 3.85-0.47 7.73-0.48 11.52-0.03 11.09 1.3 20.85 6.95 27.47 15.9 8.14 11.01 10.94 26.35 7.87 43.18-2.14 11.72-8.27 21.95-17.75 29.59-8.98 7.24-19.99 11.71-31.85 12.93l-0.47 0.04-18.6 1.18v74.69l87.45-5.1v-30.89c0.15-26.09 20.25-48.97 45.75-52.14 3.89-0.49 7.8-0.5 11.63-0.03 10.87 1.32 20.48 6.95 27.07 15.84 8.4 11.34 11.33 27.28 8.23 44.89-2.11 12.01-8.19 22.52-17.59 30.39-9 7.53-20.05 12.18-31.98 13.46l-0.58 0.05-18.53 1.08v36.61 38.45l276-17.53 88.55-5.63v-15.29-14.32c0.15-25.37 20.27-47.6 45.81-50.66 3.85-0.46 7.73-0.47 11.52-0.03 11.09 1.31 20.85 6.95 27.47 15.91 8.14 11.01 10.94 26.35 7.87 43.18q-0.56 3.03-1.47 5.92c-2.89 9.25-8.44 17.35-16.28 23.67-8.98 7.23-19.99 11.7-31.86 12.93l-0.46 0.03-18.6 1.19v74.68l87.45-5.09v-30.89c0.15-26.1 20.25-48.97 45.75-52.15 3.89-0.48 7.8-0.49 11.63-0.03 10.86 1.33 20.48 6.95 27.07 15.85 8.4 11.33 11.33 27.28 8.23 44.89-2.1 12.01-8.19 22.52-17.59 30.39-9 7.53-20.05 12.18-31.98 13.46l-0.58 0.04-18.53 1.08v75.07l364.55-23.16v-29.61c0.06-10.11 3.3-19.72 8.78-27.81v-18.16c-12.66 11.66-20.68 28.19-20.78 45.97zm-14.53 229.96q-2.83 0-5.62-0.32c-12.05-1.42-22.88-8.03-29.71-18.13-7.73-11.45-9.65-26.35-5.4-41.96 4.88-17.93 20.02-38.32 47.88-41.81l0.17-0.02 19.21-2.13v-71.93l-364.55 23.16v27.65c-0.16 26.61-19.32 49-44.57 52.14q-2.98 0.37-5.96 0.37-2.86 0-5.67-0.34c-11.79-1.44-22.47-8.03-29.29-18.08-8.02-11.8-10.08-27.29-5.8-43.62 4.13-15.77 19.43-35.54 48.98-39.38l0.58-0.06 17.73-1.43v-74.97l-87.45 5.09v28.09c-0.16 25.88-19.34 47.63-44.63 50.66q-2.96 0.36-5.9 0.36-2.83 0-5.62-0.33c-12.05-1.41-22.88-8.02-29.71-18.13-7.73-11.45-9.65-26.34-5.4-41.95 4.88-17.93 20.02-38.33 47.88-41.81l0.17-0.02 19.21-2.14v-71.93l-88.55 5.63-276 17.53v27.65c-0.16 26.61-19.32 49-44.57 52.14q-2.98 0.38-5.96 0.38-2.86 0-5.67-0.35c-11.79-1.43-22.47-8.02-29.29-18.07-8.02-11.81-10.08-27.3-5.8-43.63 4.13-15.77 19.43-35.54 48.98-39.38l0.58-0.06 17.73-1.42v-39.76-35.22l-87.45 5.1v28.09q-0.01 1.02-0.06 2.03c-1.12 24.98-19.95 45.67-44.57 48.63q-2.96 0.35-5.9 0.35-2.84 0-5.62-0.33c-12.05-1.41-22.88-8.02-29.71-18.13-5.81-8.61-8.34-19.17-7.43-30.52q0.45-5.62 2.03-11.43c4.88-17.93 20.02-38.33 47.88-41.81l0.17-0.02 19.21-2.13v-71.94l-364.55 23.16v27.65c-0.16 26.62-19.32 49-44.57 52.15q-2.98 0.37-5.96 0.37-2.86 0-5.67-0.34c-11.79-1.44-22.47-8.03-29.29-18.08-8.02-11.8-10.08-27.3-5.8-43.63 4.13-15.76 19.43-35.54 48.98-39.37l0.58-0.06 17.73-1.43v-74.97l-87.45 5.09v28.09c-0.16 25.88-19.34 47.63-44.63 50.66q-2.96 0.35-5.9 0.35-2.84 0-5.62-0.32c-12.05-1.42-22.88-8.03-29.71-18.13-7.73-11.45-9.65-26.35-5.4-41.96 4.88-17.93 20.02-38.32 47.88-41.81l0.17-0.02 19.21-2.13v-71.93l-364.55 23.16v27.65c-0.16 26.61-19.32 49-44.57 52.14q-2.98 0.37-5.96 0.37-2.86 0-5.67-0.34c-11.79-1.44-22.47-8.03-29.29-18.08-8.02-11.8-10.08-27.29-5.8-43.62 4.13-15.77 19.43-35.54 48.98-39.38l0.58-0.06 17.73-1.43v-74.97l-87.45 5.09v28.09c-0.09 14.15-5.87 27.06-15.22 36.36v15.54c16.41-11.42 27.09-30.52 27.22-51.9v-16.76l63.45-3.7v51.18l-6.69 0.54-1.17 0.12c-35.46 4.6-53.97 28.86-59.04 48.24-5.17 19.73-2.51 38.7 7.48 53.41 8.77 12.91 22.54 21.39 37.77 23.24 4.77 0.58 9.72 0.57 14.56-0.03 31.22-3.89 54.9-31.4 55.09-64.05v-16.39l340.55-21.64v48.41l-8.86 0.98c-33.75 4.22-52.08 28.89-57.98 50.57-5.18 19.04-2.68 37.44 7.04 51.82 8.79 13.01 22.73 21.51 38.25 23.33 4.71 0.56 9.56 0.55 14.35-0.03 31.28-3.74 55-30.61 55.2-62.57v-16.77l63.45-3.69v51.18l-6.69 0.54-1.17 0.12c-35.45 4.6-53.96 28.86-59.04 48.23-5.17 19.73-2.51 38.7 7.48 53.41 8.77 12.92 22.54 21.39 37.77 23.25 4.77 0.58 9.72 0.57 14.56-0.03 31.21-3.89 54.9-31.4 55.09-64.06v-16.39l340.55-21.63v48.4l-8.86 0.99c-33.75 4.22-52.08 28.89-57.98 50.57q-2 7.4-2.48 14.58c-0.91 13.7 2.32 26.58 9.52 37.24 8.79 13.01 22.73 21.51 38.25 23.33 4.72 0.55 9.56 0.55 14.35-0.03 30.61-3.67 53.97-29.49 55.14-60.54q0.04-1.01 0.06-2.03v-16.77l63.45-3.7v22.5 28.68l-6.69 0.54-1.17 0.13c-35.45 4.6-53.96 28.85-59.04 48.23-5.17 19.73-2.51 38.7 7.48 53.41 8.77 12.92 22.54 21.39 37.77 23.25 4.77 0.58 9.72 0.57 14.56-0.04 31.21-3.88 54.89-31.39 55.09-64.05v-16.39l264-16.77 76.55-4.86v48.4l-8.87 0.99c-33.75 4.22-52.07 28.89-57.97 50.57-5.18 19.03-2.68 37.43 7.04 51.82 8.79 13 22.73 21.51 38.25 23.33 4.71 0.55 9.56 0.54 14.35-0.03 31.28-3.75 55.01-30.62 55.2-62.58v-16.76l63.45-3.7v51.18l-6.69 0.54-1.17 0.12c-35.46 4.6-53.97 28.86-59.04 48.24-5.17 19.73-2.51 38.7 7.48 53.41 8.77 12.91 22.54 21.39 37.77 23.24 4.77 0.58 9.72 0.57 14.56-0.03 31.22-3.89 54.9-31.4 55.09-64.05v-16.39l340.55-21.64v48.41l-8.87 0.98c-33.75 4.22-52.07 28.89-57.97 50.57-5.18 19.04-2.68 37.44 7.04 51.82 8.79 13.01 22.73 21.51 38.25 23.33 4.71 0.56 9.56 0.55 14.35-0.03 10.35-1.24 19.86-5.02 27.98-10.67v-15.55c-7.75 7.71-17.95 12.94-29.41 14.31q-2.96 0.35-5.9 0.35zm-1904.41 440.8c1.87-10.24 0.6-18.98-3.56-24.61-2.67-3.62-6.47-5.81-10.96-6.34q-1.4-0.16-2.83-0.16-1.51 0-3.04 0.18c-13.76 1.65-24.59 13.47-24.67 26.91v28.01l16.83-1.07c7.15-0.77 13.73-3.44 19.03-7.71 5-4.03 8.1-9.15 9.2-15.21zm-11.81-2.15c-0.58 3.23-2.15 5.78-4.92 8.01-3.45 2.79-7.79 4.55-12.56 5.1l-3.77 0.24v-15.15c0.04-7.38 6.37-14.14 14.09-15.06 1.05-0.13 2.09-0.13 3.05-0.02 1.2 0.14 2.01 0.61 2.71 1.56 1.63 2.2 2.85 7.38 1.4 15.32zm997.29 304.54q-1.4-0.17-2.83-0.17-1.51 0-3.04 0.19c-13.76 1.65-24.59 13.46-24.67 26.9v0.91h12v-0.84c0.04-7.38 6.37-14.13 14.08-15.06 1.06-0.12 2.1-0.13 3.06-0.01 1.2 0.14 2.01 0.6 2.71 1.55 1.56 2.11 2.72 6.98 1.55 14.36h12.12c1.09-8.89-0.29-16.45-4.02-21.49-2.67-3.62-6.47-5.81-10.96-6.34zm-485.48-135.72c1.87-10.24 0.6-18.98-3.56-24.61-2.67-3.62-6.47-5.81-10.96-6.34q-1.4-0.16-2.83-0.16-1.51 0-3.04 0.18c-13.76 1.65-24.59 13.47-24.67 26.9v28.02l16.83-1.07c7.15-0.78 13.73-3.44 19.03-7.72 5-4.03 8.1-9.14 9.2-15.2zm-11.81-2.15c-0.58 3.23-2.15 5.78-4.92 8.01-3.45 2.78-7.79 4.54-12.56 5.1l-3.77 0.24v-15.15c0.04-7.38 6.37-14.14 14.08-15.06 1.06-0.13 2.1-0.13 3.06-0.02 1.2 0.14 2.01 0.61 2.71 1.55 1.63 2.2 2.85 7.38 1.4 15.33zm501.48 102.11c-4.73-0.55-9.57-0.54-14.35 0.03-31.43 3.77-56.2 31.23-56.38 62.58v0.98h12v-0.98c0.15-25.38 20.27-47.6 45.81-50.66 3.85-0.47 7.73-0.47 11.52-0.03 11.09 1.3 20.85 6.95 27.47 15.9 6.93 9.38 9.97 21.88 8.84 35.77h12.03c1.14-16.41-2.72-31.4-11.22-42.9-8.62-11.65-21.3-19-35.72-20.69zm-388.45-77.31c-4.8-0.58-9.7-0.57-14.56 0.03-31.37 3.91-56.09 32.02-56.27 64.06v19.57l-63.45 3.7v-50.71l7.36-0.47 0.94-0.08c14.17-1.46 27.36-6.82 38.15-15.52 11.75-9.47 19.37-22.19 22.03-36.78 3.67-20.13 0.1-38.76-10.03-52.47-8.62-11.65-21.3-18.99-35.72-20.68-4.73-0.56-9.56-0.55-14.35 0.03-31.43 3.77-56.2 31.22-56.38 62.57v18.35l-340.55 21.64v-50.96l7.23-0.42 1.16-0.1c14.29-1.53 27.57-7.13 38.4-16.18 11.6-9.71 19.11-22.69 21.71-37.52 3.67-20.89-0.03-40.11-10.41-54.11-8.57-11.57-21.09-18.89-35.26-20.62-4.8-0.58-9.7-0.57-14.56 0.04-31.37 3.9-56.09 32.01-56.27 64.05v19.57l-63.45 3.7v-50.71l7.36-0.47 0.93-0.07c14.18-1.46 27.37-6.83 38.16-15.52 11.75-9.47 19.37-22.19 22.03-36.78 3.67-20.13 0.1-38.77-10.03-52.47-8.62-11.65-21.3-19-35.72-20.69-4.73-0.56-9.56-0.55-14.35 0.03-13.6 1.63-25.95 7.7-35.6 16.6v18.16c8.27-12.22 21.67-21 37.03-22.84 3.85-0.47 7.73-0.48 11.52-0.03 11.09 1.3 20.85 6.95 27.47 15.9 8.14 11.01 10.94 26.35 7.87 43.18-2.14 11.72-8.27 21.96-17.75 29.6-8.98 7.23-19.99 11.7-31.86 12.92l-0.46 0.04-18.6 1.18v74.69l87.45-5.1v-30.89c0.15-26.09 20.25-48.97 45.75-52.14 3.89-0.49 7.8-0.5 11.63-0.03 10.86 1.32 20.48 6.95 27.07 15.84 8.4 11.34 11.33 27.28 8.23 44.89-2.1 12.01-8.19 22.52-17.59 30.39-9 7.53-20.05 12.18-31.98 13.46l-0.58 0.05-18.53 1.08v75.06l364.55-23.16v-29.61c0.15-25.37 20.27-47.6 45.81-50.66 3.85-0.46 7.73-0.47 11.52-0.03 11.09 1.31 20.85 6.95 27.47 15.91 8.14 11.01 10.94 26.35 7.87 43.18-2.14 11.72-8.27 21.95-17.75 29.59-8.98 7.23-19.99 11.7-31.85 12.93l-0.47 0.03-18.6 1.19v74.68l87.45-5.09v-30.89c0.15-26.1 20.25-48.97 45.75-52.15 3.89-0.48 7.8-0.49 11.63-0.03 10.87 1.33 20.48 6.95 27.07 15.85 8.4 11.33 11.33 27.28 8.23 44.89-2.11 12.01-8.19 22.52-17.59 30.39-9 7.53-20.05 12.18-31.98 13.46l-0.58 0.04-18.53 1.08v23.28h12v-11.96l7.23-0.42 1.16-0.09c14.3-1.53 27.57-7.13 38.4-16.19 11.6-9.71 19.11-22.68 21.71-37.52 3.67-20.88-0.03-40.1-10.41-54.1-8.57-11.57-21.09-18.89-35.26-20.62zm-534.83 77.72c-0.16 26.61-19.32 49-44.57 52.14q-2.98 0.38-5.96 0.38-2.86 0-5.67-0.35c-11.79-1.43-22.47-8.02-29.29-18.07-8.02-11.8-10.08-27.3-5.8-43.63 4.13-15.77 19.43-35.54 48.98-39.38l0.58-0.06 17.73-1.42v-74.98l-87.45 5.1v28.09c-0.09 14.15-5.87 27.05-15.22 36.35v15.55c16.41-11.43 27.09-30.52 27.22-51.9v-16.77l63.45-3.7v51.18l-6.69 0.54-1.17 0.13c-35.46 4.6-53.97 28.86-59.04 48.23-5.17 19.73-2.51 38.7 7.48 53.41 7.77 11.44 19.46 19.38 32.61 22.34h24.81c28.66-6.08 49.82-32.33 50-63.18v-16.39l340.55-21.63v48.4l-8.86 0.99c-33.75 4.22-52.08 28.89-57.98 50.57q-0.16 0.62-0.31 1.24h12.44c5.41-17.44 20.45-36.54 47.33-39.9l0.17-0.02 19.21-2.14v-71.93l-364.55 23.16zm388.55 63.18h12v-5.47l63.45-3.69v9.16h12v-21.88l-87.45 5.09zm-456.63-66.63c-2.49 9.53-1.63 18.08 2.44 24.06 2.93 4.32 7.43 7.14 12.34 7.74q2.83 0.34 5.76-0.02c13.33-1.66 23.45-13.87 23.54-28.4v-26.25l-15.5 1.25c-17.53 2.38-26.35 13.11-28.58 21.62zm11.61 3.04c1.03-3.91 6.03-10.96 18.28-12.73l2.19-0.17v13.22c-0.08 8.5-5.67 15.59-13.02 16.51q-1.47 0.18-2.83 0.02c-1.47-0.18-2.88-1.12-3.86-2.57-2.03-2.99-2.32-8.33-0.76-14.28zm101.51-175.48c1.95-11.06 0.57-20.45-3.87-26.45-2.67-3.6-6.37-5.78-10.69-6.31q-1.37-0.17-2.77-0.17-1.49 0-2.99 0.19c-13.78 1.72-24.64 14.19-24.72 28.4v29.42l16.83-0.97c7.07-0.81 13.59-3.56 18.85-7.97 5.08-4.25 8.23-9.68 9.36-16.14zm-11.81-2.07c-0.64 3.64-2.36 6.59-5.25 9-3.38 2.84-7.6 4.63-12.21 5.22l-3.77 0.22v-16.69c0.07-8.14 6.43-15.54 14.19-16.51 0.99-0.12 1.96-0.12 2.84-0.02 0.73 0.09 1.6 0.35 2.5 1.55 2.39 3.22 3.02 9.67 1.7 17.23zm290.63 241.14h15.43c2.52-2 5.83-3.59 10.21-4.16l3.05-0.34v4.5h12v-17.91l-16.48 1.83c-13.31 1.69-20.47 9.5-24.21 16.08zm221.18-72.4c1.95-11.06 0.57-20.46-3.87-26.45-2.67-3.6-6.37-5.79-10.69-6.31q-1.37-0.17-2.77-0.17-1.49 0-2.99 0.19c-13.78 1.71-24.64 14.19-24.72 28.4v29.42l16.83-0.98c7.07-0.81 13.59-3.56 18.85-7.97 5.08-4.25 8.23-9.67 9.36-16.13zm-11.81-2.08c-0.65 3.7-2.32 6.56-5.25 9.01-3.38 2.83-7.6 4.63-12.21 5.21l-3.77 0.22v-16.68c0.07-8.14 6.43-15.55 14.19-16.51 0.99-0.12 1.97-0.13 2.84-0.02 0.73 0.09 1.6 0.34 2.5 1.55 2.39 3.22 3.02 9.66 1.7 17.22zm1011.81-331.25c1.95-11.07 0.57-20.46-3.87-26.45-2.67-3.61-6.37-5.79-10.69-6.32q-1.37-0.16-2.77-0.16-1.49 0-2.99 0.18c-13.78 1.72-24.64 14.2-24.72 28.4v29.43l16.83-0.98c7.07-0.81 13.59-3.56 18.85-7.97 5.08-4.25 8.23-9.68 9.36-16.13zm-11.81-2.08c-0.64 3.65-2.36 6.59-5.25 9.01-3.38 2.83-7.6 4.63-12.21 5.21l-3.77 0.22v-16.69c0.07-8.14 6.43-15.54 14.19-16.51 0.99-0.12 1.96-0.12 2.84-0.02 0.73 0.09 1.6 0.35 2.5 1.55 2.39 3.23 3.02 9.67 1.7 17.23zm-104-78.85q3.34-4.54 4.38-10.23c1.87-10.24 0.6-18.98-3.56-24.6-2.67-3.62-6.47-5.81-10.96-6.34q-1.4-0.17-2.83-0.17-1.51 0-3.04 0.19c-13.76 1.65-24.59 13.46-24.67 26.9v14.25 13.76l16.83-1.07c7.15-0.77 13.73-3.44 19.03-7.71q2.81-2.27 4.82-4.98zm-7.43-12.38c-0.58 3.24-2.15 5.78-4.92 8.02-2.5 2.01-5.47 3.48-8.73 4.36q-1.86 0.5-3.83 0.74l-3.77 0.24v-0.98-14.18c0.04-7.38 6.37-14.13 14.09-15.06 1.04-0.12 2.09-0.13 3.05-0.01 1.2 0.14 2.01 0.6 2.71 1.55 1.63 2.2 2.85 7.38 1.4 15.32zm-101.35 173.91c-2.42 8.89-1.68 16.57 2.13 22.22 2.91 4.31 7.51 7.13 12.62 7.73q2.88 0.34 5.87-0.02c13.3-1.59 23.39-13.16 23.48-26.9v-29.14l-16.48 1.83c-20.2 2.56-26.25 19.23-27.62 24.28zm11.58 3.15c1.12-4.13 5.07-13.9 17.47-15.52l3.05-0.34v15.71c-0.07 7.69-5.61 14.14-12.9 15.01q-1.59 0.19-3.05 0.02c-1.63-0.19-3.12-1.11-4.08-2.53-1.77-2.62-1.95-7.01-0.49-12.35zm99.89 88.69c-2.49 9.53-1.63 18.07 2.44 24.06 2.93 4.31 7.43 7.13 12.34 7.73q2.83 0.34 5.76-0.02c13.33-1.66 23.45-13.87 23.54-28.4v-26.24l-15.5 1.24c-17.53 2.38-26.35 13.12-28.58 21.63zm11.61 3.04c1.03-3.92 6.03-10.97 18.28-12.73l2.19-0.18v13.22c-0.08 8.5-5.67 15.6-13.01 16.51q-1.49 0.18-2.84 0.02c-1.47-0.18-2.88-1.11-3.86-2.57-2.03-2.99-2.32-8.32-0.76-14.27zm376.92 71.79c-2.42 8.89-1.68 16.57 2.13 22.22 2.91 4.31 7.51 7.13 12.62 7.73q2.88 0.33 5.87-0.02c13.3-1.6 23.39-13.16 23.48-26.91v-29.14l-16.48 1.83c-20.2 2.57-26.25 19.24-27.62 24.29zm11.58 3.15c1.12-4.13 5.07-13.91 17.47-15.52l3.05-0.34v15.71c-0.07 7.69-5.61 14.14-12.91 15.01q-1.58 0.19-3.04 0.02c-1.63-0.19-3.12-1.11-4.08-2.53-1.77-2.63-1.95-7.01-0.49-12.35zm-1898.42-841.58c1.87-10.24 0.6-18.98-3.56-24.6-2.67-3.62-6.47-5.81-10.96-6.34q-1.4-0.17-2.83-0.17-1.51 0-3.04 0.19c-13.76 1.65-24.59 13.46-24.67 26.9v28.01l16.83-1.07c7.15-0.77 13.73-3.44 19.03-7.71 5-4.03 8.1-9.15 9.2-15.21zm-11.81-2.15c-0.58 3.24-2.15 5.78-4.92 8.02-3.45 2.78-7.79 4.54-12.56 5.1l-3.77 0.24v-15.16c0.04-7.38 6.37-14.13 14.09-15.06 1.05-0.12 2.09-0.13 3.05-0.01 1.2 0.14 2.01 0.6 2.71 1.55 1.63 2.2 2.85 7.38 1.4 15.32zm10.12 265.75c-2.49 9.53-1.63 18.07 2.44 24.06 2.93 4.31 7.43 7.13 12.34 7.73q2.83 0.35 5.76-0.02c13.33-1.66 23.45-13.87 23.54-28.4v-26.24l-15.5 1.24c-17.53 2.38-26.35 13.12-28.58 21.63zm11.61 3.04c1.03-3.92 6.03-10.97 18.28-12.73l2.19-0.18v13.22c-0.08 8.5-5.67 15.6-13.02 16.51q-1.47 0.19-2.83 0.02c-1.47-0.18-2.88-1.11-3.86-2.57-2.03-2.99-2.32-8.32-0.76-14.27zm101.51-175.48c1.95-11.07 0.57-20.46-3.87-26.45-2.67-3.61-6.37-5.79-10.69-6.32q-1.37-0.16-2.77-0.16-1.49 0-2.99 0.18c-13.78 1.72-24.64 14.2-24.72 28.4v29.43l16.83-0.98c7.07-0.81 13.59-3.56 18.85-7.97 5.08-4.25 8.23-9.68 9.36-16.13zm-11.81-2.08c-0.64 3.65-2.36 6.59-5.25 9.01-3.38 2.83-7.6 4.63-12.21 5.21l-3.77 0.22v-16.69c0.07-8.14 6.43-15.54 14.19-16.51 0.99-0.12 1.96-0.12 2.84-0.02 0.73 0.09 1.6 0.35 2.5 1.55 2.39 3.23 3.02 9.67 1.7 17.23zm900.38 244.26c1.87-10.24 0.6-18.98-3.56-24.61-2.67-3.62-6.47-5.81-10.96-6.34q-1.4-0.16-2.83-0.16-1.51 0-3.04 0.18c-13.76 1.65-24.59 13.47-24.67 26.9v28.02l16.83-1.07c7.15-0.78 13.73-3.44 19.03-7.72 5-4.03 8.1-9.14 9.2-15.2zm-11.81-2.16c-0.58 3.24-2.15 5.79-4.92 8.02-3.45 2.78-7.79 4.54-12.56 5.1l-3.77 0.24v-15.15c0.04-7.38 6.37-14.14 14.08-15.06 1.06-0.13 2.1-0.13 3.06-0.02 1.2 0.14 2.01 0.61 2.71 1.55 1.63 2.2 2.85 7.38 1.4 15.32zm-488.19-164.51c1.87-10.24 0.6-18.98-3.56-24.61-2.67-3.62-6.47-5.81-10.96-6.34q-1.4-0.16-2.83-0.16-1.51 0-3.04 0.18c-13.76 1.65-24.59 13.47-24.67 26.91v28.01l16.83-1.07c7.15-0.77 13.73-3.44 19.03-7.71 5-4.03 8.1-9.15 9.2-15.21zm-11.81-2.15c-0.58 3.23-2.15 5.78-4.92 8.01-3.45 2.78-7.79 4.55-12.56 5.1l-3.77 0.24v-15.15c0.04-7.38 6.37-14.14 14.08-15.06 1.06-0.13 2.1-0.13 3.06-0.02 1.2 0.14 2.01 0.61 2.71 1.56 1.63 2.2 2.85 7.38 1.4 15.32zm398.65 340.58c-0.48 1.76-0.8 3.46-1.04 5.13-0.93 6.71 0.11 12.56 3.17 17.08 2.91 4.32 7.51 7.14 12.62 7.73q2.88 0.34 5.87-0.02c12.61-1.51 22.33-11.99 23.37-24.79q0.09-1.05 0.11-2.11v-29.14l-16.48 1.83c-20.2 2.57-26.25 19.23-27.62 24.29zm11.1 5.13q0.2-0.97 0.48-1.98c1.12-4.14 5.07-13.91 17.47-15.52l3.05-0.34v15.7q-0.02 1.09-0.18 2.14c-0.97 6.71-6.12 12.09-12.73 12.88q-1.57 0.19-3.04 0.02c-1.64-0.2-3.12-1.12-4.08-2.53-1.55-2.3-1.88-5.93-0.97-10.37zm213.49-85.74c1.95-11.06 0.57-20.46-3.87-26.45-2.67-3.6-6.37-5.79-10.69-6.31q-1.37-0.17-2.77-0.17-1.49 0-2.99 0.19c-13.78 1.71-24.64 14.19-24.72 28.4v29.42l16.83-0.98c7.07-0.81 13.59-3.56 18.85-7.97 5.08-4.25 8.23-9.67 9.36-16.13zm-11.81-2.08c-0.65 3.7-2.32 6.56-5.25 9.01-3.38 2.83-7.6 4.63-12.21 5.21l-3.77 0.22v-16.68c0.07-8.14 6.43-15.55 14.19-16.51 0.99-0.12 1.97-0.13 2.84-0.02 0.73 0.09 1.6 0.34 2.5 1.55 2.39 3.22 3.02 9.66 1.7 17.22zm-601.31 7.85c-2.49 9.53-1.63 18.08 2.44 24.06 2.93 4.32 7.43 7.14 12.34 7.74q2.83 0.34 5.76-0.02c13.33-1.66 23.45-13.87 23.54-28.4v-26.25l-15.5 1.25c-17.53 2.38-26.35 13.11-28.58 21.62zm11.61 3.04c1.03-3.91 6.03-10.96 18.28-12.73l2.19-0.17v13.22c-0.08 8.5-5.67 15.59-13.02 16.51q-1.47 0.18-2.83 0.02c-1.47-0.18-2.88-1.12-3.87-2.57-2.03-2.99-2.31-8.32-0.75-14.28zm-123.08-94.87c-2.42 8.89-1.68 16.57 2.13 22.22 2.91 4.31 7.51 7.13 12.62 7.73q2.88 0.33 5.87-0.02c13.3-1.6 23.39-13.16 23.48-26.91v-29.14l-16.48 1.83c-20.2 2.57-26.25 19.24-27.62 24.29zm11.58 3.15c1.12-4.13 5.07-13.91 17.47-15.52l3.05-0.34v15.71c-0.07 7.69-5.61 14.14-12.91 15.01q-1.57 0.19-3.04 0.02c-1.64-0.19-3.12-1.11-4.08-2.53-1.77-2.63-1.95-7.01-0.49-12.35zm213.01-83.76c1.95-11.06 0.57-20.45-3.87-26.45-2.67-3.6-6.37-5.78-10.69-6.31q-1.37-0.17-2.77-0.17-1.49 0-2.99 0.19c-13.78 1.72-24.64 14.19-24.72 28.4v29.42l16.83-0.97c7.07-0.81 13.59-3.56 18.85-7.97 5.08-4.25 8.23-9.68 9.36-16.14zm-11.81-2.07c-0.65 3.69-2.32 6.55-5.25 9-3.38 2.84-7.6 4.63-12.21 5.22l-3.77 0.22v-16.69c0.07-8.14 6.43-15.54 14.19-16.51 0.99-0.12 1.97-0.12 2.84-0.02 0.73 0.09 1.6 0.35 2.5 1.55 2.39 3.22 3.02 9.67 1.7 17.23zm398.69 341.18c-2.49 9.53-1.63 18.07 2.44 24.06 2.93 4.32 7.43 7.14 12.34 7.74q2.83 0.34 5.76-0.02c13.33-1.67 23.45-13.87 23.54-28.4v-26.25l-15.5 1.25c-17.53 2.37-26.35 13.11-28.58 21.62zm11.61 3.04c1.03-3.92 6.03-10.97 18.28-12.73l2.19-0.17v13.22c-0.08 8.5-5.67 15.59-13.02 16.51q-1.47 0.18-2.83 0.02c-1.47-0.18-2.88-1.12-3.87-2.58-2.03-2.98-2.31-8.32-0.75-14.27zm909.02 62.61v18.34l-340.55 21.64v-50.96l7.23-0.42 1.16-0.1c14.29-1.53 27.57-7.12 38.4-16.18 11.6-9.71 19.11-22.69 21.71-37.52 3.67-20.89-0.03-40.1-10.41-54.11-8.57-11.57-21.09-18.89-35.26-20.61-4.81-0.59-9.71-0.58-14.56 0.03-31.37 3.91-56.09 32.01-56.27 64.05v19.58l-63.45 3.69v-50.71l7.36-0.47 0.93-0.07c14.18-1.46 27.37-6.83 38.16-15.52 10.73-8.64 17.99-20 21.2-33.01q0.47-1.86 0.83-3.77c3.67-20.13 0.1-38.76-10.03-52.47-8.62-11.65-21.3-19-35.72-20.69-4.74-0.55-9.57-0.54-14.35 0.03-31.43 3.77-56.19 31.23-56.38 62.58v14.32 4.03l-76.55 4.86-264 16.77v-25.66-25.3l7.23-0.42 1.16-0.09c14.3-1.53 27.57-7.13 38.4-16.19 11.6-9.71 19.11-22.68 21.71-37.52 3.67-20.88-0.03-40.1-10.41-54.1-8.57-11.57-21.09-18.89-35.26-20.62-4.79-0.58-9.69-0.57-14.56 0.03-31.37 3.91-56.09 32.02-56.27 64.06v19.57l-63.45 3.7v-50.71l7.36-0.47 0.94-0.08c14.17-1.46 27.36-6.82 38.15-15.52 11.75-9.47 19.37-22.19 22.03-36.78 3.67-20.13 0.1-38.76-10.03-52.47-8.62-11.65-21.3-18.99-35.72-20.68-4.73-0.56-9.57-0.55-14.35 0.03-31.43 3.77-56.2 31.22-56.38 62.57v18.35l-340.55 21.64v-50.96l7.23-0.42 1.16-0.1c14.3-1.53 27.57-7.13 38.4-16.18 11.6-9.71 19.11-22.69 21.71-37.52 3.67-20.89-0.03-40.11-10.41-54.11-8.57-11.57-21.09-18.89-35.26-20.62-4.8-0.58-9.7-0.57-14.56 0.04-31.37 3.9-56.09 32.01-56.27 64.05v19.57l-63.45 3.7v-50.71l7.36-0.47 0.94-0.07c14.17-1.46 27.36-6.83 38.15-15.52 11.75-9.47 19.37-22.19 22.03-36.78 3.67-20.13 0.1-38.77-10.03-52.48-8.62-11.64-21.3-18.99-35.72-20.68-4.73-0.56-9.56-0.55-14.35 0.03-31.43 3.77-56.2 31.22-56.38 62.58v18.34l-340.55 21.64v-50.96l7.23-0.42 1.16-0.1c14.29-1.53 27.57-7.12 38.4-16.18 11.6-9.71 19.11-22.69 21.71-37.52 3.67-20.89-0.03-40.1-10.41-54.11-8.57-11.57-21.09-18.89-35.26-20.61-4.8-0.59-9.7-0.58-14.56 0.03-31.37 3.91-56.09 32.01-56.27 64.05v19.58l-63.45 3.69v-50.71l7.36-0.47 0.93-0.07c14.18-1.46 27.37-6.83 38.16-15.52 11.75-9.47 19.37-22.19 22.03-36.78 3.67-20.13 0.1-38.76-10.03-52.47-8.62-11.65-21.3-19-35.72-20.69-4.73-0.55-9.56-0.54-14.35 0.03-13.6 1.64-25.95 7.71-35.6 16.61v18.16c8.27-12.23 21.67-21.01 37.03-22.85 3.85-0.46 7.73-0.47 11.52-0.03 11.09 1.3 20.85 6.95 27.47 15.91 8.14 11.01 10.94 26.34 7.87 43.18-2.14 11.72-8.27 21.95-17.75 29.59-8.98 7.23-19.99 11.7-31.86 12.92l-0.46 0.04-18.6 1.18v74.69l87.45-5.09v-30.9c0.15-26.09 20.25-48.96 45.75-52.14 3.89-0.49 7.8-0.5 11.63-0.03 10.86 1.32 20.48 6.95 27.07 15.85 8.4 11.33 11.33 27.27 8.23 44.88-2.1 12.02-8.19 22.53-17.59 30.4-9 7.52-20.05 12.18-31.98 13.45l-0.58 0.05-18.53 1.08v75.07l364.55-23.17v-29.6c0.15-25.38 20.27-47.6 45.81-50.66 3.85-0.47 7.73-0.48 11.52-0.03 11.09 1.3 20.85 6.95 27.47 15.9 8.14 11.01 10.94 26.35 7.87 43.18-2.14 11.72-8.27 21.95-17.75 29.59-8.98 7.24-19.99 11.71-31.85 12.93l-0.47 0.04-18.6 1.18v74.69l87.45-5.1v-30.89c0.15-26.09 20.25-48.97 45.75-52.14 3.89-0.49 7.8-0.5 11.63-0.03 10.87 1.32 20.48 6.95 27.07 15.84 8.4 11.34 11.33 27.28 8.23 44.89-2.11 12.01-8.19 22.52-17.59 30.39-9 7.53-20.05 12.18-31.98 13.46l-0.58 0.05-18.53 1.08v75.06l364.55-23.16v-29.61c0.15-25.37 20.27-47.6 45.81-50.66 3.85-0.46 7.73-0.47 11.52-0.03 11.09 1.31 20.85 6.95 27.47 15.91 8.14 11.01 10.94 26.35 7.87 43.18-2.14 11.72-8.27 21.95-17.75 29.59-8.98 7.23-19.99 11.7-31.85 12.92l-0.47 0.04-18.6 1.19v74.68l87.45-5.09v-30.89c0.15-26.1 20.25-48.97 45.75-52.15 3.89-0.48 7.8-0.49 11.63-0.03 10.87 1.33 20.48 6.95 27.07 15.85 8.4 11.33 11.33 27.28 8.23 44.89-2.11 12.01-8.19 22.52-17.59 30.39-9 7.53-20.05 12.18-31.98 13.46l-0.58 0.04-18.53 1.08v36.62 38.45l276-17.54 88.55-5.62v-15.29-14.32c0.15-25.38 20.27-47.6 45.81-50.66 3.85-0.47 7.73-0.47 11.52-0.03 11.09 1.3 20.85 6.95 27.47 15.91 8.14 11.01 10.94 26.34 7.87 43.18q-0.56 3.03-1.47 5.92c-2.89 9.24-8.44 17.35-16.28 23.67-8.98 7.23-19.99 11.7-31.86 12.92l-0.46 0.04-18.6 1.18v74.69l87.45-5.09v-30.9c0.15-26.09 20.25-48.96 45.75-52.14 3.89-0.49 7.8-0.5 11.63-0.03 10.86 1.32 20.48 6.95 27.07 15.85 8.4 11.33 11.33 27.27 8.23 44.88-2.1 12.02-8.19 22.53-17.59 30.4-9 7.52-20.05 12.18-31.98 13.45l-0.58 0.05-18.53 1.08v75.07l364.55-23.17v-29.6c0.06-10.12 3.3-19.72 8.78-27.82v-18.16c-12.66 11.67-20.68 28.19-20.78 45.98zm-14.53 229.96q-2.83 0-5.62-0.33c-12.05-1.41-22.88-8.02-29.71-18.13-7.73-11.44-9.65-26.34-5.4-41.95 4.88-17.93 20.02-38.33 47.88-41.81l0.17-0.02 19.21-2.13v-71.94l-364.55 23.16v27.65c-0.16 26.61-19.32 49-44.57 52.15q-2.98 0.37-5.96 0.37-2.86 0-5.67-0.34c-11.79-1.44-22.47-8.03-29.29-18.08-8.02-11.8-10.08-27.29-5.8-43.62 4.13-15.77 19.43-35.55 48.98-39.38l0.58-0.06 17.73-1.43v-74.97l-87.45 5.09v28.09c-0.16 25.88-19.34 47.63-44.63 50.66q-2.96 0.35-5.9 0.35-2.83 0-5.62-0.32c-12.05-1.42-22.88-8.03-29.71-18.13-7.73-11.45-9.65-26.35-5.4-41.96 4.88-17.93 20.02-38.32 47.88-41.81l0.17-0.02 19.21-2.13v-71.93l-88.55 5.62-276 17.54v27.65c-0.16 26.61-19.32 49-44.57 52.14q-2.98 0.37-5.96 0.37-2.86 0-5.67-0.34c-11.79-1.44-22.47-8.03-29.29-18.08-8.02-11.8-10.08-27.29-5.8-43.62 4.13-15.77 19.43-35.54 48.98-39.38l0.58-0.06 17.73-1.43v-39.75-35.22l-87.45 5.09v28.09q-0.01 1.02-0.06 2.04c-1.12 24.97-19.95 45.67-44.57 48.62q-2.96 0.36-5.9 0.36-2.84 0-5.62-0.33c-12.05-1.41-22.88-8.02-29.71-18.13-5.81-8.61-8.34-19.17-7.43-30.52q0.45-5.62 2.03-11.43c4.88-17.93 20.02-38.33 47.88-41.81l0.17-0.02 19.21-2.14v-71.93l-364.55 23.16v27.65c-0.16 26.61-19.32 49-44.57 52.14q-2.98 0.38-5.96 0.38-2.86 0-5.67-0.35c-11.79-1.43-22.47-8.02-29.29-18.07-8.02-11.81-10.08-27.3-5.8-43.63 4.13-15.77 19.43-35.54 48.98-39.38l0.58-0.06 17.73-1.42v-74.98l-87.45 5.1v28.09c-0.16 25.88-19.34 47.62-44.63 50.66q-2.96 0.35-5.9 0.35-2.84 0-5.62-0.33c-12.05-1.41-22.88-8.02-29.71-18.13-7.73-11.44-9.65-26.34-5.4-41.95 4.88-17.93 20.02-38.33 47.88-41.81l0.17-0.02 19.21-2.13v-71.94l-364.55 23.16v27.65c-0.16 26.61-19.32 49-44.57 52.15q-2.98 0.37-5.96 0.37-2.86 0-5.67-0.34c-11.79-1.44-22.47-8.03-29.29-18.08-8.02-11.8-10.08-27.29-5.8-43.62 4.13-15.77 19.43-35.55 48.98-39.38l0.58-0.06 17.73-1.43v-74.97l-87.45 5.09v28.09c-0.09 14.15-5.87 27.06-15.22 36.35v15.55c16.41-11.43 27.09-30.52 27.22-51.9v-16.77l63.45-3.69v51.18l-6.69 0.54-1.17 0.12c-35.46 4.6-53.97 28.86-59.04 48.23-5.17 19.74-2.51 38.7 7.48 53.41 8.77 12.92 22.54 21.39 37.77 23.25 4.77 0.58 9.72 0.57 14.56-0.03 31.22-3.89 54.9-31.4 55.09-64.06v-16.39l340.55-21.63v48.4l-8.86 0.99c-33.75 4.22-52.08 28.89-57.98 50.57-5.18 19.03-2.68 37.44 7.04 51.82 8.79 13.01 22.73 21.51 38.25 23.33 4.71 0.55 9.56 0.55 14.35-0.03 31.28-3.75 55-30.62 55.2-62.57v-16.77l63.45-3.7v51.18l-6.69 0.54-1.17 0.12c-35.45 4.61-53.96 28.86-59.04 48.24-5.17 19.73-2.51 38.7 7.48 53.41 8.77 12.92 22.54 21.39 37.77 23.25 4.77 0.58 9.72 0.57 14.56-0.04 31.21-3.88 54.9-31.39 55.09-64.05v-16.39l340.55-21.63v48.4l-8.86 0.99c-33.75 4.22-52.08 28.89-57.98 50.57q-2 7.39-2.47 14.58c-0.92 13.7 2.31 26.57 9.51 37.24 8.79 13 22.73 21.51 38.25 23.33 4.72 0.55 9.56 0.54 14.35-0.03 30.61-3.67 53.97-29.49 55.14-60.54q0.04-1.02 0.06-2.04v-16.76l63.45-3.7v22.5 28.68l-6.69 0.54-1.17 0.12c-35.45 4.6-53.96 28.86-59.04 48.24-5.17 19.73-2.51 38.69 7.48 53.4 8.77 12.92 22.54 21.4 37.77 23.25 4.77 0.58 9.72 0.57 14.56-0.03 31.21-3.89 54.89-31.39 55.09-64.05v-16.39l264-16.77 76.55-4.87v48.41l-8.87 0.98c-33.75 4.22-52.07 28.89-57.97 50.57-5.18 19.04-2.68 37.44 7.04 51.82 8.79 13.01 22.73 21.51 38.25 23.33 4.71 0.56 9.56 0.55 14.35-0.03 31.28-3.75 55.01-30.62 55.2-62.57v-16.77l63.45-3.69v51.18l-6.69 0.54-1.17 0.12c-35.46 4.6-53.97 28.86-59.04 48.23-5.17 19.74-2.51 38.7 7.48 53.41 8.77 12.92 22.54 21.39 37.77 23.25 4.77 0.58 9.72 0.57 14.56-0.03 31.22-3.89 54.9-31.4 55.09-64.06v-16.39l340.55-21.63v48.4l-8.87 0.99c-33.75 4.22-52.07 28.89-57.97 50.57-5.18 19.03-2.68 37.44 7.04 51.82 8.79 13.01 22.73 21.51 38.25 23.33 4.71 0.55 9.56 0.54 14.35-0.03 10.35-1.24 19.86-5.02 27.98-10.67v-15.55c-7.75 7.71-17.95 12.93-29.41 14.31q-2.96 0.35-5.9 0.35z"/>
			</g>
		</g>
	</g>
</svg>